<svg width="35" height="35" viewBox="0 0 35 35" fill="none" xmlns="http://www.w3.org/2000/svg">
<path d="M5.12701 21.3636C4.84423 21.3636 4.58842 21.1847 4.48775 20.9212C4.38467 20.6512 4.46986 20.3353 4.69336 20.1521C4.91446 19.9711 5.23302 19.9479 5.47816 20.0942C5.72275 20.2405 5.85333 20.5348 5.79699 20.8141C5.73317 21.13 5.44985 21.3636 5.12701 21.3636Z" fill="#222222"/>
<path d="M30.9668 0H4.0332C1.80939 0 0 1.80939 0 4.0332V30.9668C0 33.1906 1.80939 35 4.0332 35H30.9668C33.1906 35 35 33.1906 35 30.9668V4.0332C35 1.80939 33.1906 0 30.9668 0ZM18.0039 33.6328V23.1738C18.0039 22.7962 17.6979 22.4902 17.3203 22.4902H13.9445V18.3334H17.3203C17.6979 18.3334 18.0039 18.0271 18.0039 17.6498V14.5939C18.0039 10.9282 20.2168 8.65093 23.7778 8.65093L27.1339 8.65627V12.4975L24.9165 12.4988C22.6243 12.4988 22.3153 13.7934 22.3153 15.0596V17.6495C22.3153 18.0271 22.6213 18.3331 22.9989 18.3331H26.9712L26.9686 22.4902H22.9989C22.6213 22.4902 22.3153 22.7962 22.3153 23.1738V33.6328H18.0039ZM33.6328 30.9668C33.6328 32.4368 32.4368 33.6328 30.9668 33.6328H23.6825V23.8574H27.104C27.783 23.8574 28.3358 23.3047 28.3358 22.6259L28.3384 18.198C28.3384 17.872 28.2111 17.5636 27.9769 17.3264C27.7446 17.0941 27.4351 16.9659 27.1053 16.9659H23.6825V15.0596C23.6825 14.5485 23.7397 14.2457 23.8625 14.1066C24.0014 13.9493 24.3656 13.866 24.9167 13.866L27.2692 13.8647C27.9486 13.8647 28.5013 13.3119 28.5013 12.6329V8.52303C28.5013 7.84557 27.9507 7.29229 27.2719 7.28909L23.7789 7.28374C21.6656 7.28374 19.8712 7.97882 18.5892 9.2942C17.3117 10.6048 16.6367 12.4374 16.6367 14.5939V16.9659H13.8094C13.1301 16.9659 12.5776 17.5187 12.5776 18.198V22.6256C12.5776 23.3047 13.1301 23.8574 13.8094 23.8574H16.6367V33.6328H5.81055V23.7594C5.81055 23.3818 5.50453 23.0758 5.12695 23.0758C4.74937 23.0758 4.44336 23.3818 4.44336 23.7594V33.6328H4.0332C2.56321 33.6328 1.36719 32.4368 1.36719 30.9668V4.0332C1.36719 2.56321 2.56321 1.36719 4.0332 1.36719H4.44336V17.6044C4.44336 17.9817 4.74937 18.288 5.12695 18.288C5.50453 18.288 5.81055 17.9817 5.81055 17.6044V1.36719H30.9668C32.4368 1.36719 33.6328 2.56321 33.6328 4.0332V30.9668Z" fill="#222222"/>
</svg>
