<svg width="35" height="35" viewBox="0 0 35 35" fill="none" xmlns="http://www.w3.org/2000/svg">
<path d="M26.1133 0H16.1328C15.7552 0 15.4492 0.306015 15.4492 0.683594C15.4492 1.06117 15.7552 1.36719 16.1328 1.36719H26.1133C30.2594 1.36719 33.6328 4.7403 33.6328 8.88672V26.1133C33.6328 30.2597 30.2594 33.6328 26.1133 33.6328H8.88672C4.74056 33.6328 1.36719 30.2597 1.36719 26.1133V8.88672C1.36719 4.7403 4.74056 1.36719 8.88672 1.36719H10.6641C11.0416 1.36719 11.3477 1.06117 11.3477 0.683594C11.3477 0.306015 11.0416 0 10.6641 0H8.88672C3.98647 0 0 3.98647 0 8.88672V26.1133C0 31.0135 3.98647 35 8.88672 35H26.1133C31.0135 35 35 31.0135 35 26.1133V8.88672C35 3.98647 31.0135 0 26.1133 0Z" fill="#222222"/>
<path d="M25.0195 17.5C25.0195 13.3538 21.6462 9.98047 17.5 9.98047C13.3538 9.98047 9.98047 13.3538 9.98047 17.5C9.98047 21.6462 13.3538 25.0195 17.5 25.0195C21.6462 25.0195 25.0195 21.6462 25.0195 17.5ZM17.5 23.6523C14.1077 23.6523 11.3477 20.8923 11.3477 17.5C11.3477 14.1077 14.1077 11.3477 17.5 11.3477C20.8923 11.3477 23.6523 14.1077 23.6523 17.5C23.6523 20.8923 20.8923 23.6523 17.5 23.6523Z" fill="#222222"/>
<path d="M28.8477 8.88699C28.8477 7.37907 27.6209 6.15261 26.1133 6.15261C24.6054 6.15261 23.3789 7.37907 23.3789 8.88699C23.3789 10.3946 24.6054 11.6214 26.1133 11.6214C27.6209 11.6214 28.8477 10.3946 28.8477 8.88699ZM24.7461 8.88699C24.7461 8.1329 25.3595 7.5198 26.1133 7.5198C26.8671 7.5198 27.4805 8.1329 27.4805 8.88699C27.4805 9.64081 26.8671 10.2542 26.1133 10.2542C25.3595 10.2542 24.7461 9.64081 24.7461 8.88699Z" fill="#222222"/>
<path d="M13.3987 1.36719C13.7763 1.36719 14.0823 1.06117 14.0823 0.683594C14.0823 0.306015 13.7763 0 13.3987 0H13.3982C13.0209 0 12.7148 0.306015 12.7148 0.683594C12.7148 1.06117 13.0211 1.36719 13.3987 1.36719Z" fill="#222222"/>
</svg>
