<svg width="36" height="31" viewBox="0 0 36 31" fill="none" xmlns="http://www.w3.org/2000/svg">
<g clip-path="url(#clip0)">
<path d="M32.5706 15.218C31.9848 15.0627 31.3907 15.4399 31.2705 16.0439L28.8573 28.0537C28.8095 28.2941 28.6556 28.8523 28.2611 28.8523C28.0663 28.8523 27.8209 28.7443 27.5706 28.5475L21.1448 23.2811C21.1441 23.2804 21.1427 23.2797 21.142 23.279L17.3184 20.1452L28.2998 8.26919C28.6513 7.88918 28.683 7.30666 28.375 6.88872C28.067 6.47079 27.5088 6.33983 27.0517 6.57742L8.99055 15.9694L2.58368 14.1038L33.0473 2.26785C33.3046 2.16767 33.4839 2.14691 33.5894 2.14691C33.6541 2.14691 33.7687 2.15478 33.8116 2.20846C33.8678 2.27787 33.9388 2.51546 33.8502 2.96059L32.7738 8.37152C32.6627 8.92972 32.9995 9.47933 33.5416 9.62317C34.1273 9.77847 34.7214 9.40133 34.8416 8.79733L35.9181 3.3864C36.1185 2.37949 35.9505 1.47779 35.4449 0.848746C35.0048 0.301283 34.3459 0 33.5901 0C33.1788 0 32.7435 0.0880234 32.2956 0.261923L1.82219 12.1021C0.205004 12.7305 -0.0129643 13.673 0.00109824 14.1789C0.0151607 14.6849 0.285161 15.6138 1.93469 16.1476C1.94454 16.1505 1.95438 16.1541 1.96422 16.1569L8.28532 17.9983L11.7039 27.9471C12.1701 29.3032 13.2163 30.1462 14.4348 30.1462C15.2034 30.1462 15.9585 29.8185 16.6202 29.1994L20.5302 25.5354L26.2009 30.1827C26.2016 30.1834 26.2023 30.1834 26.2031 30.1841L26.2572 30.2285C26.2621 30.2321 26.267 30.2364 26.272 30.2407C26.902 30.7381 27.5903 31.0014 28.2625 31.0014C29.5759 31.0014 30.6215 30.0124 30.9259 28.4816L33.3391 16.4718C33.4495 15.9115 33.112 15.3619 32.5706 15.218ZM14.7456 19.997L13.2817 26.0335L10.3996 17.6476L22.5946 11.3071L15.0009 19.519C14.8771 19.6535 14.7892 19.8181 14.7456 19.997ZM15.1907 27.6186C15.1401 27.6658 15.0895 27.708 15.0388 27.7467L16.3973 22.1468L18.8681 24.1721L15.1907 27.6186Z" fill="#222222"/>
<path d="M33.0101 13.5191C33.5165 13.5191 33.927 13.1013 33.927 12.5859C33.927 12.0705 33.5165 11.6527 33.0101 11.6527C32.5038 11.6527 32.0933 12.0705 32.0933 12.5859C32.0933 13.1013 32.5038 13.5191 33.0101 13.5191Z" fill="#222222"/>
</g>
<defs>
<clipPath id="clip0">
<rect width="36" height="31" fill="white"/>
</clipPath>
</defs>
</svg>
