<svg width="35" height="35" viewBox="0 0 35 35" fill="none" xmlns="http://www.w3.org/2000/svg">
<path d="M13.9998 33C13.5813 33 13.1983 32.7287 13.0572 32.3354C12.9185 31.9475 13.0378 31.5012 13.3522 31.235C13.6811 30.9571 14.1623 30.9224 14.5282 31.1485C14.8782 31.3648 15.0621 31.7905 14.981 32.1935C14.8879 32.6562 14.4725 33 13.9998 33Z" fill="#222222"/>
<path d="M21.9984 27C20.2808 27 17.2665 26.2535 13.4634 22.2501C9.72617 18.313 8.66242 15.8577 9.08803 12.1472C9.13628 11.6879 9.24499 11.2289 9.41984 10.743C9.42066 10.7405 9.42147 10.7379 9.42255 10.7353C9.60906 10.2338 9.86958 9.75047 10.1759 9.33826C10.1919 9.31628 10.2095 9.29544 10.228 9.27546L10.6343 8.84098C11.1385 8.30145 11.8119 8.00285 12.5306 8H12.5414C13.2563 8 13.9275 8.2926 14.4334 8.82499L15.9577 10.4302C17.0011 11.5289 17.0011 13.3165 15.9577 14.4153L15.8566 14.5217C15.8514 14.5269 15.8463 14.5323 15.8411 14.5374L15.2526 15.1198C15.7126 16.0007 16.2402 16.9979 17.3478 18.1648C18.4599 19.3358 19.4122 19.8868 20.252 20.3729C20.2659 20.3809 20.2797 20.3889 20.2932 20.3966L20.9658 19.6887C22.0092 18.5902 23.7065 18.5902 24.7499 19.6887L26.2163 21.2327C26.7248 21.7683 27.003 22.4799 27 23.2373C26.997 23.9943 26.7129 24.7037 26.2003 25.2344L25.7871 25.662C25.769 25.6809 25.7494 25.6988 25.7291 25.7157C25.3355 26.0414 24.8765 26.3169 24.4021 26.5119C23.8963 26.718 23.4558 26.8433 23.0537 26.8955L23.0396 26.8984C22.7799 26.9529 22.4302 27 21.9984 27ZM23.0434 26.8969C23.0407 26.8972 23.0377 26.8975 23.035 26.8978C23.0364 26.8978 23.0394 26.8975 23.0434 26.8969ZM10.7208 11.2669C10.5885 11.6354 10.5072 11.9771 10.4722 12.312C10.4719 12.3145 10.4714 12.3171 10.4711 12.3197C10.1447 15.1623 10.6566 17.2182 14.4483 21.2128C18.8516 25.8481 21.9295 25.6352 22.768 25.4596C22.8054 25.4519 22.8379 25.4451 22.8762 25.4405C23.1608 25.4054 23.4964 25.3083 23.8974 25.145C24.2324 25.0069 24.5583 24.8139 24.8394 24.5861L25.2235 24.1885C25.4694 23.9341 25.6055 23.5941 25.6068 23.231C25.6085 22.8682 25.4748 22.5268 25.2311 22.2701L23.7648 20.7258C23.2646 20.1991 22.4508 20.1991 21.9507 20.7258L20.9105 21.8208C20.692 22.0509 20.3559 22.1017 20.0848 21.9464C20.0511 21.927 20.0164 21.9079 19.9812 21.8882C19.9202 21.8545 19.8576 21.8197 19.7947 21.7825C19.7272 21.7429 19.6548 21.7012 19.5811 21.6584C18.7052 21.1517 17.6151 20.5208 16.3624 19.2019C15.0997 17.8717 14.4976 16.7181 14.0134 15.7912C13.9766 15.7207 13.9403 15.651 13.9042 15.5828C13.8649 15.5094 13.8381 15.4501 13.8164 15.4024C13.805 15.3773 13.7939 15.3522 13.7787 15.323C13.6247 15.0296 13.6795 14.6636 13.9112 14.4341L14.879 13.4764L14.9726 13.3779C15.2149 13.1227 15.3483 12.7835 15.3483 12.4227C15.3483 12.0619 15.2149 11.7228 14.9726 11.4675L13.4482 9.86238C13.2045 9.60574 12.8784 9.46815 12.536 9.46672C12.1915 9.46815 11.8686 9.61145 11.6268 9.8698L11.2497 10.2734C11.0363 10.5675 10.8539 10.9097 10.7208 11.2669Z" fill="#222222"/>
<path d="M17.5648 33C17.5485 33 17.4557 32.9992 17.3699 32.9986C17.3034 32.998 17.2411 32.9975 17.2288 32.9975C16.831 32.9966 16.5087 32.6738 16.5093 32.276C16.5098 31.8783 16.8319 31.5563 17.2293 31.5563C17.2394 31.5563 17.3076 31.5566 17.3811 31.5574C17.4602 31.558 17.5457 31.5585 17.5623 31.5585C25.279 31.5263 31.5588 25.2196 31.5588 17.5C31.5588 9.7479 25.2521 3.4412 17.5 3.4412C9.7479 3.4412 3.4412 9.7479 3.4412 17.5C3.4412 20.5176 4.38226 23.3927 6.1623 25.8151L6.98668 26.9365C7.11683 27.1138 7.15891 27.3407 7.10112 27.5527L6.40269 30.1176L9.12407 29.2124C9.31369 29.1491 9.52069 29.1676 9.696 29.2629L11.0702 30.0102C11.4197 30.2004 11.549 30.6379 11.3588 30.9877C11.1686 31.3372 10.7308 31.4665 10.3813 31.2763L9.28227 30.6786L5.58139 31.91C5.32922 31.9939 5.05181 31.9324 4.85855 31.7495C4.66557 31.5669 4.58871 31.2932 4.65855 31.0368L5.61926 27.5098L5.00104 26.6686C3.03784 23.9972 2 20.8267 2 17.5C2 8.95325 8.95325 2 17.5 2C26.0468 2 33 8.95325 33 17.5C33 26.0111 26.0765 32.9641 17.5662 33C17.5656 33 17.5654 33 17.5648 33Z" fill="#222222"/>
</svg>
