<svg width="69" height="69" viewBox="0 0 69 69" fill="none" xmlns="http://www.w3.org/2000/svg">
<g clip-path="url(#clip0)">
<path d="M63.1986 18.3144H61.2626C60.7098 16.6646 59.1505 15.472 57.3169 15.472H51.7449V6.51081C51.7449 5.93199 51.3752 5.41772 50.8265 5.23336L49.0232 4.62732C48.2937 4.38407 41.6875 2.25073 34.5 2.25073C27.3139 2.25073 20.7077 4.38421 19.9751 4.6284L18.1749 5.23336C17.6263 5.41772 17.2566 5.93199 17.2566 6.51081V15.472H11.6843C9.85069 15.472 8.29159 16.6646 7.73865 18.3144H5.80139C2.60259 18.3144 0 20.9168 0 24.1158V59.7559V60.9491C0 64.1472 2.60259 66.7492 5.80139 66.7492H63.2C66.3981 66.7492 69 64.1472 69 60.9491V59.7559V24.1158C69 20.9168 66.3974 18.3144 63.1986 18.3144ZM19.9518 7.4795L20.8306 7.18423C21.1047 7.09286 27.6229 4.94591 34.5 4.94591C41.3783 4.94591 47.8965 7.09286 48.1678 7.18315L49.0497 7.4795V15.4719H46.4618V10.3939C46.4618 9.78224 46.0498 9.24736 45.4586 9.09103C43.2586 8.50952 38.9095 7.53395 34.5 7.53395C30.0677 7.53395 25.7319 8.50803 23.5419 9.0886C22.951 9.2452 22.5396 9.77995 22.5396 10.3912V15.472H19.9516V7.4795H19.9518ZM25.235 15.472V11.4404C27.4624 10.9034 30.9632 10.2293 34.5 10.2293C38.0201 10.2293 41.5302 10.9055 43.7665 11.4438V15.472H25.235ZM10.2186 19.6331C10.2186 18.8249 10.8761 18.1674 11.6843 18.1674H57.3169C58.1251 18.1674 58.7826 18.8249 58.7826 19.6331V19.662V32.5535C58.7826 32.8742 58.7419 33.1873 58.6648 33.4871C58.331 34.7862 57.3147 35.8363 55.9687 36.1827L40.5251 40.155C40.4023 38.1813 38.7575 36.613 36.7533 36.613H32.2481C30.2437 36.613 28.5989 38.1813 28.4761 40.155L13.0325 36.1826C11.6863 35.8362 10.6701 34.7861 10.3364 33.487C10.2593 33.1871 10.2187 32.8741 10.2187 32.5533V23.9201H48.1704C48.9145 23.9201 49.518 23.3168 49.518 22.5724C49.518 21.8281 48.9145 21.2248 48.1704 21.2248H10.2186V19.6619V19.6331ZM31.1637 41.8958C31.1637 41.8943 31.164 41.8928 31.164 41.8912V40.4367C31.1668 39.8142 31.6738 39.3084 32.2971 39.3084H36.7038C37.3289 39.3084 37.8372 39.8169 37.8372 40.4418V41.8912V44.8487C37.8372 45.4736 37.3289 45.982 36.7038 45.982H32.2971C31.6721 45.982 31.1637 45.4737 31.1637 44.8487V41.8958ZM2.69531 24.1158C2.69531 22.403 4.08865 21.0097 5.80139 21.0097H7.52329V32.5535C7.52329 35.4946 9.5127 38.0602 12.361 38.793L28.4683 42.9361V44.8487C28.4683 46.9598 30.1859 48.6774 32.297 48.6774H36.7037C38.8148 48.6774 40.5324 46.9598 40.5324 44.8487V42.9361L56.64 38.7928C59.4884 38.0601 61.4777 35.4944 61.4777 32.5533V21.0096H63.1983C64.9111 21.0096 66.3044 22.4029 66.3044 24.1156V58.4081H2.69531V24.1158ZM63.2 64.054H5.80139C4.1404 64.054 2.77981 62.7442 2.69909 61.1035H66.3008C66.2202 62.7443 64.8601 64.054 63.2 64.054Z" fill="black"/>
<path d="M52.9401 23.088C53.2124 23.7709 54.0281 24.0923 54.6988 23.8156C55.4022 23.5255 55.7233 22.6841 55.3998 21.9975C55.1196 21.4028 54.4242 21.0915 53.7931 21.2835C53.0443 21.5113 52.6385 22.3639 52.9401 23.088Z" fill="black"/>
</g>
<defs>
<clipPath id="clip0">
<rect width="69" height="69" fill="white"/>
</clipPath>
</defs>
</svg>
