<svg width="69" height="69" viewBox="0 0 69 69" fill="none" xmlns="http://www.w3.org/2000/svg">
<g clip-path="url(#clip0)">
<path d="M22.7742 36.4253C22.2907 35.862 21.4423 35.7959 20.8774 36.2775C19.2874 37.6328 18.2897 39.4968 18.0427 41.5583L13.9346 36.8017V29.5631C13.9346 24.9996 10.222 21.287 5.65869 21.287C4.91452 21.287 4.31104 21.8905 4.31104 22.6346V39.7415C4.31104 39.9584 4.36346 40.1721 4.46372 40.3645L15.3164 61.181V67.6523C15.3164 68.3965 15.9199 69 16.6641 69H30.2929C31.0371 69 31.6406 68.3965 31.6406 67.6523V49.6291C31.6406 47.7742 30.9751 45.9778 29.7672 44.5709L22.7742 36.4253ZM28.9451 66.3046H18.0116V60.8507C18.0116 60.6338 17.9592 60.4201 17.8589 60.2277L7.00621 39.4112V24.1468C9.43455 24.7511 11.2392 26.9504 11.2392 29.5631V37.3032C11.2392 37.6266 11.3555 37.9393 11.567 38.184L22.0609 50.3341L22.1079 50.3885C22.5946 50.952 23.4456 51.0143 24.0086 50.5276C24.572 50.0411 24.6342 49.1901 24.1477 48.6269L22.0268 46.1711C21.0545 45.0452 20.5813 43.6084 20.6946 42.1251C20.7731 41.0993 21.1252 40.138 21.7097 39.3233L27.7218 46.3266C28.5106 47.2451 28.945 48.4181 28.945 49.6291V66.3046H28.9451Z" fill="black"/>
<path d="M57.4325 38.1847C57.6442 37.94 57.761 37.6269 57.761 37.3032V29.9674C57.761 27.057 59.5063 24.7571 61.9939 24.1436V39.7414C61.9939 40.4856 62.5974 41.089 63.3416 41.089C64.0858 41.089 64.6893 40.4856 64.6893 39.7414V22.6346C64.6893 21.8905 64.0858 21.287 63.3416 21.287C61.0275 21.287 58.9065 22.2035 57.3689 23.8678C55.8837 25.4756 55.0656 27.6419 55.0656 29.9674V36.8012L50.9569 41.5525C50.7087 39.4936 49.7114 37.6316 48.1229 36.2775C47.5578 35.7959 46.7096 35.862 46.2261 36.4253L39.2334 44.5706C38.0252 45.9777 37.3599 47.7741 37.3599 49.629V67.6523C37.3599 68.3965 37.9633 69 38.7075 69H52.3364C53.0805 69 53.684 68.3965 53.684 67.6523V61.1808L59.0082 50.969C59.3524 50.309 59.0962 49.4949 58.4363 49.151C57.7765 48.8072 56.9623 49.0633 56.6183 49.7229L51.1414 60.2277C51.0411 60.4201 50.9887 60.6338 50.9887 60.8507V66.3046H40.0552V49.6291C40.0552 48.4181 40.4897 47.2453 41.2784 46.3264L47.2905 39.3233C47.875 40.138 48.2271 41.0993 48.3055 42.1253C48.411 43.5077 48.0074 44.8498 47.1669 45.9349L44.5939 48.9102C44.1074 49.4727 44.1686 50.3229 44.7306 50.8101C45.2923 51.2969 46.1428 51.237 46.6307 50.6756L57.4325 38.1847Z" fill="black"/>
<path d="M39.4453 36.4319V31.2582H42.9247C43.3118 31.2582 43.6804 31.0916 43.9363 30.801C44.1921 30.5103 44.3106 30.1236 44.2614 29.7394L42.7464 17.9023C42.7456 17.8954 42.7446 17.8885 42.7435 17.8819C42.7123 17.6636 42.6709 17.4478 42.6229 17.2338C44.29 18.6525 45.4202 20.6074 45.8045 22.8178L46.1834 24.9973C46.2974 25.6525 46.8666 26.1143 47.5097 26.1143C47.5862 26.1143 47.6641 26.1077 47.7421 26.0943C48.4754 25.9668 48.9665 25.269 48.8391 24.5357L48.4602 22.3563C47.8187 18.6657 45.5623 15.5247 42.2697 13.7385L38.6072 11.7516C40.0667 10.5307 40.9971 8.69723 40.9971 6.65014C40.9972 2.98317 38.0139 0 34.3471 0C30.6803 0 27.6971 2.98317 27.6971 6.65001C27.6971 8.6971 28.6275 10.5306 30.0869 11.7514L26.4243 13.7385C23.1319 15.5247 20.8756 18.6658 20.2339 22.3564L19.8551 24.5358C19.7277 25.2691 20.2188 25.9668 20.9522 26.0943C21.0302 26.1079 21.1078 26.1143 21.1845 26.1143C21.8275 26.1143 22.3969 25.6524 22.5108 24.9971L22.8896 22.8178C23.2738 20.6074 24.4042 18.6525 26.0713 17.2338C26.0234 17.4477 25.982 17.6636 25.9506 17.8819C25.9496 17.8888 25.9486 17.8955 25.9478 17.9023L24.4329 29.7395C24.3837 30.1238 24.5022 30.5104 24.758 30.8011C25.0138 31.0916 25.3825 31.2583 25.7697 31.2583H29.249V36.432C29.249 37.1762 29.8525 37.7797 30.5967 37.7797C31.3409 37.7797 31.9444 37.1762 31.9444 36.432V31.2583H36.75V36.432C36.75 37.1762 37.3534 37.7797 38.0976 37.7797C38.8418 37.7797 39.4453 37.176 39.4453 36.4319ZM34.3471 2.69531C36.5279 2.69531 38.3019 4.46937 38.3019 6.65001C38.3019 8.83079 36.5279 10.6048 34.3471 10.6048C32.1664 10.6048 30.3924 8.83079 30.3924 6.65001C30.3924 4.46937 32.1666 2.69531 34.3471 2.69531ZM28.6201 18.2555C29.0303 15.4297 31.4907 13.3 34.3471 13.3C37.2034 13.3 39.6639 15.4297 40.0744 18.2555L41.3936 28.5628H27.3007L28.6201 18.2555Z" fill="black"/>
<path d="M61.7444 44.7151C61.4662 44.0357 60.6621 43.7047 59.9856 43.9861C59.3069 44.2684 58.9739 45.0646 59.2567 45.7447C59.5382 46.4218 60.336 46.7575 61.0154 46.4752C61.6922 46.1938 62.027 45.393 61.7444 44.7151Z" fill="black"/>
</g>
<defs>
<clipPath id="clip0">
<rect width="69" height="69" fill="white"/>
</clipPath>
</defs>
</svg>
