<svg width="69" height="69" viewBox="0 0 69 69" fill="none" xmlns="http://www.w3.org/2000/svg">
<g clip-path="url(#clip0)">
<path d="M64.9388 56.4885C64.4802 55.194 63.5416 54.1624 62.2962 53.5839C61.0508 53.0053 59.6574 52.9535 58.3723 53.4383L56.8734 54.0035V36.3277C56.8734 35.5836 56.2699 34.9801 55.5258 34.9801C54.7816 34.9801 54.1782 35.5836 54.1782 36.3277V55.0189L47.7268 57.452C47.1846 57.6565 46.6313 57.8169 46.071 57.9329C44.8408 58.187 43.5778 58.2267 42.3287 58.0495C42.8203 57.5036 43.2045 56.846 43.4432 56.1029C44.3628 53.2664 42.7694 50.1446 39.847 49.3768L28.0234 46.2706C27.9117 46.2413 27.7965 46.2264 27.681 46.2264H27.6808H18.4919V43.6866C18.4919 42.9425 17.8885 42.3391 17.1443 42.3391H14.3463V11.1982H21.5605C22.3046 11.1982 22.9081 10.5947 22.9081 9.8506V2.69518H54.1782V24.2842C54.1782 25.0283 54.7816 25.6318 55.5258 25.6318C56.2699 25.6318 56.8734 25.0283 56.8734 24.2842V1.34759C56.8734 0.60345 56.2699 0 55.5258 0H21.5605C21.2088 0 20.8604 0.143518 20.6109 0.39134L12.0491 8.89435C11.7974 9.1446 11.6512 9.49564 11.6512 9.8506V42.3391H5.11468C4.37054 42.3391 3.76709 42.9425 3.76709 43.6866V66.7491C3.76709 67.4933 4.37054 68.0967 5.11468 68.0967H17.1443C17.8885 68.0967 18.4919 67.4933 18.4919 66.7491V64.3202H23.3974L41.0658 68.6112C42.1356 68.871 43.2189 69.0003 44.2981 69.0003C46.0357 69.0003 47.7626 68.6653 49.4056 68.0006L62.0617 62.8806C64.5836 61.8602 65.8474 59.0525 64.9388 56.4885ZM20.2129 8.50301H16.2681L20.2129 4.5853V8.50301ZM15.7967 65.4014H6.46227V45.0342L15.7966 45.0349L15.7967 65.4014ZM61.0512 60.3818L48.395 65.5018C46.2572 66.3667 43.943 66.5363 41.7018 65.9919L23.8767 61.6629C23.7726 61.6376 23.6658 61.6249 23.5587 61.6249H18.4918V48.9215H27.5066L39.1627 51.984C39.569 52.0907 39.9335 52.2926 40.232 52.5712C41.1248 53.4042 41.2502 54.7586 40.6446 55.7936C40.0963 56.731 38.9906 57.2552 37.9189 57.0562L30.062 55.2042C29.3381 55.0343 28.6119 55.4822 28.4413 56.2067C28.2705 56.931 28.7193 57.6567 29.4438 57.8274L29.4508 57.8292H29.451L29.4533 57.8297C29.4535 57.8297 29.4536 57.8297 29.4537 57.8298H29.454C29.4541 57.8298 29.4544 57.83 29.4545 57.83H29.4547C29.4549 57.8301 29.4551 57.8301 29.4552 57.8301L29.4555 57.8302C29.7052 57.8891 33.9266 58.8842 37.1689 59.6523C38.9637 60.0764 40.7818 60.6254 42.6233 60.7953C44.7889 60.9952 46.9208 60.637 48.947 59.8729C51.5204 58.9025 58.4379 56.294 59.3233 55.9601C60.5532 55.4966 61.9604 56.1521 62.3983 57.3885C62.8238 58.5892 62.2321 59.9041 61.0512 60.3818Z" fill="black"/>
<path d="M27.3155 23.2043H23.4233C22.6791 23.2043 22.0757 23.8077 22.0757 24.5518C22.0757 25.296 22.6791 25.8994 23.4233 25.8994H25.2832V26.7068C25.2832 27.4509 25.8867 28.0544 26.6308 28.0544C27.3749 28.0544 27.9784 27.4509 27.9784 26.7068V25.8415C29.7976 25.526 31.1859 23.9372 31.1859 22.029V21.8665C31.1859 19.7323 29.4497 17.9961 27.3155 17.9961H25.9461C25.298 17.9961 24.7709 17.4689 24.7709 16.8209C24.7709 16.1728 25.298 15.6456 25.9461 15.6456H29.8383C30.5825 15.6456 31.1859 15.0422 31.1859 14.298C31.1859 13.5539 30.5825 12.9505 29.8383 12.9505H27.9784V12.1431C27.9784 11.399 27.3749 10.7955 26.6308 10.7955C25.8867 10.7955 25.2832 11.399 25.2832 12.1431V13.0084C23.464 13.3239 22.0757 14.9127 22.0757 16.8209C22.0757 18.955 23.8119 20.6913 25.9461 20.6913H27.3155C27.9636 20.6913 28.4907 21.2185 28.4907 21.8665V22.029C28.4907 22.6771 27.9636 23.2043 27.3155 23.2043Z" fill="black"/>
<path d="M46.1177 10.7584H36.8188C36.0746 10.7584 35.4712 11.3619 35.4712 12.106C35.4712 12.8501 36.0746 13.4536 36.8188 13.4536H46.1178C46.8619 13.4536 47.4654 12.8501 47.4654 12.106C47.4654 11.3619 46.8619 10.7584 46.1177 10.7584Z" fill="black"/>
<path d="M46.1177 17.8734H36.8188C36.0746 17.8734 35.4712 18.4769 35.4712 19.221C35.4712 19.9651 36.0746 20.5686 36.8188 20.5686H46.1178C46.8619 20.5686 47.4654 19.9651 47.4654 19.221C47.4654 18.4769 46.8619 17.8734 46.1177 17.8734Z" fill="black"/>
<path d="M46.1177 24.9882H36.8188C36.0746 24.9882 35.4712 25.5916 35.4712 26.3357C35.4712 27.0799 36.0746 27.6833 36.8188 27.6833H46.1178C46.8619 27.6833 47.4654 27.0799 47.4654 26.3357C47.4654 25.5916 46.8619 24.9882 46.1177 24.9882Z" fill="black"/>
<path d="M46.1176 32.103H23.4233C22.6791 32.103 22.0757 32.7065 22.0757 33.4506C22.0757 34.1948 22.6791 34.7982 23.4233 34.7982H46.1176C46.8617 34.7982 47.4652 34.1948 47.4652 33.4506C47.4652 32.7065 46.8619 32.103 46.1176 32.103Z" fill="black"/>
<path d="M46.1176 39.2178H23.4233C22.6791 39.2178 22.0757 39.8212 22.0757 40.5654C22.0757 41.3095 22.6791 41.9129 23.4233 41.9129H46.1176C46.8617 41.9129 47.4652 41.3095 47.4652 40.5654C47.4652 39.8212 46.8619 39.2178 46.1176 39.2178Z" fill="black"/>
<path d="M56.6463 29.5418C56.2365 28.9331 55.3895 28.7591 54.7772 29.1685C54.1657 29.5775 54.0001 30.4258 54.4053 31.0375C54.8113 31.6503 55.6635 31.8143 56.273 31.4096C56.8846 31.0037 57.0531 30.1515 56.6463 29.5418Z" fill="black"/>
</g>
<defs>
<clipPath id="clip0">
<rect width="69" height="69" fill="white"/>
</clipPath>
</defs>
</svg>
