<svg width="69" height="69" viewBox="0 0 69 69" fill="none" xmlns="http://www.w3.org/2000/svg">
<path d="M10.1787 15.7063V35.1656C10.1787 35.91 10.7821 36.5133 11.5264 36.5133H30.4268C31.1712 36.5133 31.7745 35.91 31.7745 35.1656V15.7063C31.7745 14.962 31.1712 14.3586 30.4268 14.3586H11.5264C10.7821 14.3586 10.1787 14.962 10.1787 15.7063ZM13.0657 33.818C13.6501 31.8142 15.5038 30.3458 17.6938 30.3458H24.2592C26.4491 30.3458 28.3028 31.8142 28.8873 33.818H13.0657ZM18.4882 25.1623C18.4882 23.7902 19.6045 22.6741 20.9764 22.6741C22.3483 22.6741 23.4646 23.7903 23.4646 25.1623C23.4646 26.5342 22.3483 27.6504 20.9764 27.6504C19.6045 27.6504 18.4882 26.5343 18.4882 25.1623ZM29.0791 17.054V29.4054C28.0659 28.5562 26.8267 27.9693 25.4657 27.7487C25.9064 26.9869 26.1599 26.1039 26.1599 25.1623C26.1599 22.304 23.8346 19.9788 20.9764 19.9788C18.1182 19.9788 15.7929 22.304 15.7929 25.1623C15.7929 26.1039 16.0465 26.9869 16.4872 27.7487C15.1264 27.9693 13.8871 28.5563 12.874 29.4054V17.054H29.0791Z" fill="black"/>
<path d="M46.8108 55.2482C46.8108 57.9115 48.9781 60.0782 51.6423 60.0782C54.3057 60.0782 56.4724 57.9115 56.4724 55.2482V40.3451C62.4843 38.3226 66.8265 32.6332 66.8265 25.9484C66.8265 25.8935 66.8257 25.8389 66.8247 25.784L66.8238 25.7289C66.8135 24.9847 66.2029 24.3887 65.4577 24.4C64.7135 24.4102 64.1184 25.0218 64.1287 25.7661L64.1297 25.829C64.1303 25.8688 64.1312 25.9086 64.1312 25.9484C64.1312 31.8422 60.0271 36.7949 54.5271 38.1007C52.6491 38.5457 50.6674 38.5461 48.7881 38.1083C43.2723 36.8141 39.1528 31.8535 39.1528 25.9486C39.1528 19.0621 44.7554 13.4594 51.642 13.4594C52.6925 13.4594 53.7197 13.5876 54.7101 13.8364C54.7608 13.8528 54.8125 13.8664 54.8656 13.877C56.5172 14.3149 58.0628 15.0925 59.434 16.1889C60.0156 16.6541 60.8634 16.5592 61.3283 15.9779C61.793 15.3967 61.6986 14.5486 61.1174 14.0838C59.7265 12.9717 58.149 12.1219 56.4739 11.5594V1.34766C56.4739 0.603346 55.8704 0 55.1263 0H12.8442C12.1521 0 11.6637 0.60348 11.195 1.03648C10.412 1.75977 3.03099 8.5781 2.79771 8.79359C2.60661 8.97013 2.41996 9.13805 2.30541 9.38063C2.2201 9.56135 2.17334 9.76013 2.17334 9.96026V67.6523C2.17334 68.3967 2.77669 69 3.521 69H55.1263C55.8704 69 56.4739 68.3967 56.4739 67.6523V63.1253C56.4739 62.381 55.8704 61.7776 55.1263 61.7776C54.3821 61.7776 53.7786 62.381 53.7786 63.1253V66.3047H4.86852V11.3079H12.8442C13.5885 11.3079 14.1919 10.7046 14.1919 9.96026V2.69531H53.7785V10.9194C53.0728 10.8184 52.3591 10.764 51.6419 10.764C43.269 10.764 36.4573 17.5757 36.4573 25.9484C36.4573 32.633 40.7992 38.3221 46.8107 40.3448V55.2482H46.8108ZM6.96587 8.6126L11.4967 4.42732V8.6126H6.96587ZM51.6423 57.3831C50.4644 57.3831 49.5061 56.4254 49.5061 55.2484V54.4124H53.777V55.2484C53.7771 56.4254 52.8193 57.3831 51.6423 57.3831ZM50.0337 41.0479C51.2593 41.1768 52.5001 41.1581 53.7209 40.99C53.7395 40.9875 53.7584 40.9857 53.777 40.9832V51.717H49.5061V40.9829C49.5232 40.9853 49.5404 40.9868 49.5575 40.9892C49.7155 41.0111 49.8743 41.0309 50.0337 41.0479Z" fill="black"/>
<path d="M36.1075 40.2639H11.3267C10.5823 40.2639 9.979 40.8673 9.979 41.6116C9.979 42.3559 10.5823 42.9592 11.3267 42.9592H36.1075C36.8517 42.9592 37.4552 42.3559 37.4552 41.6116C37.4552 40.8673 36.8518 40.2639 36.1075 40.2639Z" fill="black"/>
<path d="M36.1073 45.8513H32.6411C31.8968 45.8513 31.2935 46.4547 31.2935 47.199C31.2935 47.9433 31.8968 48.5466 32.6411 48.5466H36.1073C36.8515 48.5466 37.4549 47.9433 37.4549 47.199C37.4549 46.4547 36.8516 45.8513 36.1073 45.8513Z" fill="black"/>
<path d="M11.3267 49.1084H19.6835C20.4278 49.1084 21.0311 48.5051 21.0311 47.7607C21.0311 47.0164 20.4278 46.4131 19.6835 46.4131H11.3267C10.5823 46.4131 9.979 47.0164 9.979 47.7607C9.979 48.5051 10.5823 49.1084 11.3267 49.1084Z" fill="black"/>
<path d="M37.4552 53.9102C37.4552 53.1658 36.8517 52.5625 36.1075 52.5625H11.3267C10.5823 52.5625 9.979 53.1658 9.979 53.9102C9.979 54.6545 10.5823 55.2578 11.3267 55.2578H36.1075C36.8518 55.2578 37.4552 54.6545 37.4552 53.9102Z" fill="black"/>
<path d="M11.3267 58.7119C10.5823 58.7119 9.979 59.3153 9.979 60.0596C9.979 60.8039 10.5823 61.4072 11.3267 61.4072H29.5109C30.2552 61.4072 30.8585 60.8039 30.8585 60.0596C30.8585 59.3153 30.2552 58.7119 29.5109 58.7119H11.3267Z" fill="black"/>
<path d="M24.9973 47.9469C25.4079 48.5574 26.2537 48.7255 26.8665 48.3189C27.4791 47.9124 27.6431 47.0611 27.2384 46.451C26.8321 45.8387 25.9805 45.6744 25.3706 46.0791C24.7589 46.485 24.5907 47.3367 24.9973 47.9469Z" fill="black"/>
<path d="M51.642 16.6738C46.5279 16.6738 42.3672 20.8346 42.3672 25.9487C42.3672 31.0628 46.5279 35.2235 51.642 35.2235C56.7561 35.2235 60.9167 31.0628 60.9167 25.9487C60.9167 20.8346 56.7561 16.6738 51.642 16.6738ZM51.642 32.5281C48.014 32.5281 45.0625 29.5766 45.0625 25.9485C45.0625 22.3205 48.014 19.369 51.642 19.369C55.2699 19.369 58.2214 22.3205 58.2214 25.9485C58.2214 29.5766 55.2699 32.5281 51.642 32.5281Z" fill="black"/>
<path d="M40.8803 10.0862C41.6245 10.0862 42.228 9.48284 42.228 8.73853C42.228 7.99422 41.6245 7.39087 40.8803 7.39087H20.4185C19.6741 7.39087 19.0708 7.99422 19.0708 8.73853C19.0708 9.48284 19.6741 10.0862 20.4185 10.0862H40.8803Z" fill="black"/>
<path d="M62.664 20.0573C62.9424 20.7365 63.7473 21.0672 64.424 20.7864C65.1026 20.5047 65.4345 19.7057 65.1531 19.0263C64.8723 18.3483 64.0708 18.0159 63.393 18.2973C62.7159 18.5784 62.3817 19.3794 62.664 20.0573Z" fill="black"/>
</svg>
