<svg width="69" height="69" viewBox="0 0 69 69" fill="none" xmlns="http://www.w3.org/2000/svg">
<path d="M63.443 19.2207C60.3253 16.103 56.2333 14.1787 51.8536 13.7535C51.1923 12.774 50.2785 12.0044 49.1742 11.5058C49.106 11.4749 49.0354 11.4498 48.9632 11.4308L46.4041 10.7562L40.6591 5.01243C40.3045 4.65799 39.7823 4.52956 39.304 4.67915C39.1005 4.74289 34.555 6.19851 29.9197 10.4492L28.2518 8.78145C28.4406 8.47202 28.585 8.13322 28.6789 7.77245C28.9305 6.80671 28.7909 5.80095 28.2859 4.94019L27.1695 3.03729C26.6645 2.17667 25.8546 1.56402 24.889 1.31254C23.9234 1.0612 22.9176 1.20055 22.0569 1.70566L16.2666 5.10272C15.406 5.60769 14.7933 6.41764 14.5419 7.38324C14.2904 8.34898 14.4299 9.35474 14.935 10.2155L16.0514 12.1184C16.5108 12.9014 17.2232 13.4781 18.075 13.7654V17.8115C11.7972 18.1387 7.57416 20.3101 7.3836 20.4098C6.93941 20.6424 6.66098 21.1024 6.66098 21.6038V30.2947C6.66098 31.039 7.26433 31.6423 8.00865 31.6423C8.75296 31.6423 9.35631 31.039 9.35631 30.2947V22.4677C10.8761 21.824 14.676 20.4642 19.6498 20.4642C24.5968 20.4642 28.417 21.8273 29.9433 22.47V30.2943C29.9433 30.8337 30.3247 31.3125 30.5867 31.762C31.3016 32.9886 32.0609 34.0462 31.7663 35.5299C31.5264 36.7383 30.7027 37.801 29.5822 38.3193C28.4002 38.8661 26.9881 38.7691 25.886 38.0766C23.951 36.8608 21.716 36.2181 19.4227 36.2181C16.6791 36.2181 14.0175 37.1672 11.7255 38.9631C11.7172 38.9696 11.7089 38.9763 11.7008 38.9829C8.87641 41.3052 7.25651 44.7325 7.25651 48.3856C7.25651 55.0462 12.6753 60.5029 19.3361 60.5498C20.6003 60.5362 21.7062 61.528 21.7062 62.8307C21.7062 64.0896 20.6821 65.1137 19.4226 65.1137C19.409 65.1137 19.3954 65.1138 19.3817 65.1142C10.1769 65.0922 2.69533 57.5962 2.69533 48.3855C2.69533 46.0024 3.58008 43.2007 4.10755 41.7428C4.36065 41.0428 3.99853 40.2702 3.29868 40.017C2.59857 39.7638 1.82609 40.126 1.57286 40.8259C0.855364 42.8095 0 45.7312 0 48.3855C0 59.0959 8.71294 67.8095 19.4226 67.8095C30.133 67.8095 38.8466 59.0959 38.8466 48.3855C38.8466 48.269 38.8447 48.1529 38.8426 48.0366C42.0645 50.3832 45.936 51.6513 50.0068 51.6515H50.0075C55.0858 51.6515 59.8551 49.6798 63.4375 46.0997C63.4393 46.0979 63.4413 46.0965 63.443 46.0947C70.8522 38.6855 70.8522 26.6299 63.443 19.2207ZM61.5372 21.1266C66.7521 26.3415 67.6895 34.2395 64.35 40.4191C63.6601 39.061 62.3394 38.0853 60.8373 37.8289C60.809 37.8239 60.781 37.8168 60.7526 37.8123C61.5178 36.2198 61.9213 34.4626 61.9199 32.647C61.9194 31.903 61.3162 31.3003 60.5722 31.3003C60.572 31.3003 60.5716 31.3003 60.5713 31.3003C59.827 31.3008 59.224 31.9046 59.2246 32.6489C59.2263 35.0727 58.296 37.3617 56.6048 39.0941C56.5955 39.1035 56.5877 39.1139 56.5788 39.1236C56.5446 39.1561 56.5097 39.1876 56.4761 39.2212C52.883 42.765 47.0566 42.7452 43.488 39.1765C41.534 37.2226 40.5654 34.5242 40.8292 31.7709C41.1024 29.5514 42.0211 27.604 43.4871 26.138C44.7142 24.9098 46.2554 24.0564 47.954 23.668C47.9721 23.6637 47.9897 23.6582 48.0077 23.6538C48.0144 23.6524 48.021 23.6519 48.0278 23.6504C49.8856 23.2447 51.8689 23.4288 53.6124 24.1688C54.2975 24.4598 55.0887 24.1401 55.3794 23.4548C55.6702 22.7697 55.3506 21.9785 54.6654 21.6878C53.7791 21.3115 52.8617 21.0464 51.9283 20.8937C52.7566 19.6218 53.1021 18.1081 52.9237 16.6195C56.1755 17.2077 59.1808 18.7702 61.5372 21.1266ZM20.7702 17.791V13.6498C20.9042 13.5909 21.036 13.5252 21.164 13.45L26.1709 10.5125L28.0185 12.3602C26.1427 14.4272 24.8247 16.4695 23.9468 18.0747C22.958 17.9337 21.895 17.8326 20.7702 17.791ZM17.2597 8.85139C17.1191 8.61164 17.0802 8.3316 17.1503 8.0626C17.2204 7.79361 17.391 7.56814 17.6306 7.42745L23.4208 4.03038C23.5827 3.93551 23.7629 3.88686 23.9456 3.88686C24.0336 3.88686 24.1223 3.89818 24.2096 3.92095C24.4786 3.99103 24.7041 4.16164 24.8448 4.40126L25.9612 6.30417C26.0178 6.40052 26.057 6.50362 26.0802 6.60968L25.6937 6.22317C25.1674 5.69691 24.3141 5.69691 23.7877 6.22317C23.2613 6.74943 23.2614 7.60278 23.7877 8.12918L24.2014 8.54291L20.7702 10.5562V9.66053C20.7702 8.91621 20.1669 8.31286 19.4226 8.31286C18.6783 8.31286 18.0749 8.91621 18.0749 9.66053V10.241L17.2597 8.85139ZM9.95185 48.3855C9.95185 45.5467 11.2085 42.8829 13.4005 41.0746C15.2104 39.6605 17.2925 38.9131 19.4227 38.9131C21.2081 38.9131 22.9471 39.413 24.4521 40.3586C24.4771 40.3744 24.5027 40.3891 24.5281 40.4046C24.5283 40.4047 24.5285 40.4049 24.5288 40.405C27.2628 42.1591 28.8949 45.1424 28.8949 48.3853C28.8949 50.8947 27.9235 53.2592 26.1596 55.0432C24.3968 56.826 22.0462 57.8245 19.5405 57.8547C19.5389 57.8547 19.5374 57.855 19.5359 57.855C19.4984 57.8542 19.4611 57.8522 19.4235 57.8522C19.3955 57.8522 19.3676 57.8528 19.3317 57.854C14.1575 57.805 9.95185 53.5623 9.95185 48.3855ZM24.1381 64.4377C24.2576 64.0862 24.3366 63.72 24.3748 63.3448C24.5014 62.1193 24.1615 60.8696 23.4289 59.8789C25.1627 59.2764 26.749 58.2803 28.0759 56.9383C30.342 54.6463 31.59 51.609 31.59 48.3853C31.59 45.7683 30.7627 43.2829 29.277 41.2384C30.8228 40.9234 32.1908 40.0648 33.1456 38.8341C33.1668 38.8645 33.1885 38.8945 33.2095 38.9251C33.2743 39.0193 33.3375 39.1146 33.4003 39.21C34.1322 40.3218 34.7267 41.5175 35.1784 42.7695C35.8172 44.557 36.1512 46.4544 36.1512 48.3853C36.1513 55.9731 31.074 62.397 24.1381 64.4377ZM50.0069 48.9562C45.6459 48.9561 41.5509 47.2627 38.4764 44.1883C38.4396 44.1515 38.4018 44.113 38.3631 44.0728C38.2621 43.6291 38.1434 43.1902 38.0115 42.7556C37.5766 41.3232 36.9747 39.9418 36.2227 38.6475C35.8559 38.0161 35.4532 37.4051 35.0179 36.8188C34.8385 36.5772 34.584 36.2736 34.4216 36.0213C34.4216 36.0213 34.4759 35.6686 34.4939 35.502C34.5716 34.7851 34.5271 34.0579 34.3665 33.3551C34.2849 32.9985 34.1934 32.5966 34.0077 32.278L32.7021 30.039L32.6386 29.9302V21.6037C32.6386 21.1022 32.3602 20.6423 31.916 20.4097C31.789 20.3432 29.8685 19.3556 26.7432 18.6074C27.6761 17.0289 29.027 15.1143 30.9013 13.2399C34.2999 9.84139 37.86 8.14656 39.3662 7.53122L44.7556 12.9195C44.9242 13.0879 45.1343 13.2088 45.3649 13.2696L47.4252 13.8128C49.2407 14.2915 50.474 16.0393 50.2079 17.8979C50.1455 18.3341 50.0049 18.7663 49.7803 19.1741C49.2602 20.118 48.368 20.8002 47.3429 21.0432C45.1592 21.5425 43.1664 22.6456 41.5806 24.2329C39.6815 26.132 38.4957 28.6318 38.1515 31.4617C38.1502 31.4724 38.1489 31.483 38.148 31.4937C37.8004 35.0578 39.052 38.5529 41.582 41.0827C43.898 43.3988 46.9489 44.5584 50.0025 44.5581C53.03 44.558 56.06 43.4177 58.3754 41.1339C58.8657 40.6437 59.5184 40.4182 60.1488 40.4581C61.4198 40.5523 62.3504 41.7178 62.1509 42.9828C62.0788 43.4374 61.8688 43.8569 61.5373 44.1884C58.4631 47.2631 54.3683 48.9563 50.0069 48.9562Z" fill="black"/>
<path d="M19.4224 31.6491C20.1667 31.6491 20.7701 31.0458 20.7701 30.3015V27.7725H21.0119C21.7562 27.7725 22.3595 27.1691 22.3595 26.4248C22.3595 25.6805 21.7562 25.0771 21.0119 25.0771H17.833C17.0887 25.0771 16.4854 25.6805 16.4854 26.4248C16.4854 27.1691 17.0887 27.7725 17.833 27.7725H18.0748V30.3015C18.0748 31.0458 18.6781 31.6491 19.4224 31.6491Z" fill="black"/>
<path d="M38.3099 18.513L36.5216 16.7248L36.6926 16.5537C37.2189 16.0275 37.2189 15.1741 36.6926 14.6477C36.1664 14.1215 35.313 14.1215 34.7866 14.6477L32.5387 16.8956C32.0125 17.4219 32.0125 18.2752 32.5387 18.8016C32.8019 19.0648 33.1468 19.1964 33.4917 19.1964C33.8365 19.1964 34.1815 19.0648 34.4446 18.8016L34.6156 18.6306L36.4039 20.419C36.6671 20.6822 37.012 20.8137 37.3569 20.8137C37.7017 20.8137 38.0467 20.6822 38.3098 20.419C38.8361 19.8926 38.8361 19.0392 38.3099 18.513Z" fill="black"/>
<path d="M4.12768 36.2943C4.41028 36.972 5.20688 37.304 5.88637 37.0234C6.56546 36.7429 6.8955 35.9412 6.61545 35.2634C6.33514 34.5845 5.53382 34.2536 4.85541 34.5343C4.17498 34.8159 3.84966 35.6158 4.12768 36.2943Z" fill="black"/>
<path d="M57.513 27.2488C58.1809 28.8518 60.6665 27.8236 60.0021 26.2178C59.3376 24.6117 56.8541 25.6404 57.513 27.2488Z" fill="black"/>
</svg>
