<svg width="69" height="69" viewBox="0 0 69 69" fill="none" xmlns="http://www.w3.org/2000/svg">
<path d="M55.5182 51.7631C54.774 51.7631 54.1705 52.3664 54.1705 53.1107V66.3047H15.7049V59.1957C15.7049 58.4514 15.1014 57.848 14.3573 57.848H7.26172V23.5657C7.26172 22.8214 6.65824 22.218 5.91406 22.218C5.16989 22.218 4.56641 22.8214 4.56641 23.5657V59.1957C4.56641 59.8679 5.08566 60.2675 5.51623 60.7047C6.90405 62.1136 11.9703 67.4025 13.2375 68.4382C13.5953 68.7306 13.859 69 14.359 69H55.5183C56.2625 69 56.866 68.3967 56.866 67.6524V53.1107C56.8658 52.3664 56.2624 51.7631 55.5182 51.7631ZM13.0096 60.5433V64.3952L9.16394 60.5433H13.0096Z" fill="black"/>
<path d="M20.9977 23.7216C24.4267 23.7216 27.2165 20.9318 27.2165 17.5027C27.2165 17.236 27.1341 16.9671 26.9843 16.7465L23.538 11.6584H29.5245V21.0984L24.3627 27.4477C24.0346 27.8512 23.9681 28.4074 24.1914 28.8768C24.4148 29.3463 24.8884 29.6455 25.4083 29.6455H36.3456C36.8655 29.6455 37.3391 29.3463 37.5626 28.8768C37.7859 28.4072 37.7193 27.8511 37.3913 27.4477L32.2195 21.086V11.6584H38.2261L34.7799 16.7466C34.6302 16.9673 34.5477 17.2361 34.5477 17.5028C34.5477 20.9319 37.3374 23.7217 40.7665 23.7217C44.1956 23.7217 46.9854 20.9319 46.9854 17.5028C46.9854 16.9786 46.6315 16.5669 46.3526 16.1553C45.9312 15.5331 43.2041 11.5066 42.262 10.1156C41.8875 9.56269 41.5387 8.96312 40.7665 8.96312H32.2195V6.90552C32.2195 6.16121 31.616 5.55786 30.8718 5.55786C30.1277 5.55786 29.5242 6.16121 29.5242 6.90552V8.96325H20.9977C20.5307 8.96325 20.1232 9.20826 19.8614 9.58547C19.7738 9.71161 16.4959 14.5544 15.5281 15.9833C15.2223 16.4349 14.7788 16.9305 14.7788 17.5029C14.7788 20.9319 17.5686 23.7216 20.9977 23.7216ZM28.241 26.9503L30.8772 23.7074L33.5137 26.9503H28.241ZM40.7667 21.0263C39.301 21.0263 38.0414 20.1266 37.5112 18.8503H44.0224C43.4922 20.1267 42.2326 21.0263 40.7667 21.0263ZM38.4361 16.1552L40.7667 12.7141L43.0975 16.1552H38.4361ZM20.9977 21.0263C19.5319 21.0263 18.2722 20.1266 17.742 18.8503H24.2532C23.7229 20.1267 22.4634 21.0263 20.9977 21.0263ZM20.9977 12.7141L23.3283 16.1552H18.6669L20.9977 12.7141Z" fill="black"/>
<path d="M4.79354 18.3112C5.19703 18.9268 6.05481 19.087 6.66274 18.6831C7.27471 18.2765 7.43952 17.4252 7.03469 16.8153C6.62864 16.2036 5.77503 16.0371 5.16562 16.4433C4.555 16.8505 4.38749 17.7008 4.79354 18.3112Z" fill="black"/>
<path d="M63.1556 35.0645L62.0633 33.9723L62.7864 33.2491C63.5983 32.4373 64.0777 31.3586 64.1362 30.2119C64.2026   28.9064 63.7109 27.6278 62.7865 26.7035C61.8621 25.7793 60.5824 25.2866 59.278 25.354C58.4053 25.3985 57.5723 25.6875 56.866 26.1808V1.34766C56.866 0.603346 56.2625 0 55.5183 0H5.91406C5.16989 0 4.56641 0.603346 4.56641 1.34766V11.4401C4.56641 12.1844 5.16989 12.7878 5.91406 12.7878C6.65824 12.7878 7.26172 12.1844 7.26172 11.4401V2.69531H54.1705V28.7742L41.0431 41.9016C41.0429 41.9019 41.0427 41.902 41.0425 41.9023L38.0636 44.8811C35.9181 47.0266 33.9062 49.3444 32.0838 51.7702C32.0773 51.7788 32.0709 51.7876 32.0645 51.7964L30.0982 54.5494C29.385 55.5478 29.2693 56.8016 29.7084 57.8756L28.7734 58.8106C28.2472 59.3369 28.2472 60.1902 28.7734 60.7166C29.0366 60.9798 29.3815 61.1114 29.7263 61.1114C30.0712 61.1114 30.4161 60.9798 30.6793 60.7166L31.6117 59.7842C32.0295 59.9552 32.4746 60.0419 32.9215 60.0419C33.6236 60.0419 34.3299 59.828 34.9404 59.392L37.6935 57.4257C37.7023 57.4193 37.7111 57.413 37.7197 57.4064C40.1456 55.5837 42.4634 53.5718 44.6088 51.4264L47.5868 48.4482C47.5871 48.448 47.5872 48.4478 47.5875 48.4476L60.1571 35.8781L61.2494 36.9704C61.9023 37.6233 61.9023 38.6856 61.2494 39.3384L51.9658 48.622C51.4395 49.1482 51.4395 50.0016 51.9658 50.5279C52.229 50.791 52.5738 50.9227 52.9187 50.9227C53.2636 50.9227 53.6084 50.791 53.8716 50.5279L63.1552 41.2443C64.8593 39.5406 64.8593 36.7684 63.1556 35.0645ZM46.6348 45.5889L43.9012 42.8553L55.5178 31.2388L58.2514 33.9724L46.6348 45.5889ZM59.4152 28.0459C59.969 28.0178 60.4889 28.2179 60.8805 28.6097C61.2723 29.0014 61.4725 29.5218 61.4442 30.075C61.4198 30.5538 61.2197 31.0043 60.8805 31.3434L60.1574 32.0665L57.4238 29.333L58.1468 28.6098C58.486 28.2706 58.9364 28.0705 59.4152 28.0459ZM42.703 49.5207C40.6508 51.5729 38.4339 53.4976 36.1137 55.2419L33.374 57.1987C33.0639 57.42 32.644 57.3855 32.3748 57.1164C32.3746 57.1162 32.3745 57.116 32.3742 57.1158C32.3739 57.1157 32.3738 57.1156 32.3737 57.1153C32.1048 56.8459 32.07 56.4258 32.2915 56.116L34.2484 53.3762C35.9924 51.0561 37.9171 48.8393 39.9695 46.787L41.9954 44.7611L44.729 47.4946L42.703 49.5207Z" fill="black"/>
<path d="M13.6719 34.3428C13.6719 35.0871 14.2754 35.6904 15.0195 35.6904H17.7446C18.4888 35.6904 19.0923 35.0871 19.0923 34.3428C19.0923 33.5985 18.4888 32.9951 17.7446 32.9951H15.0195C14.2754 32.9951 13.6719 33.5985 13.6719 34.3428Z" fill="black"/>
<path d="M43.9881 34.3428C43.9881 33.5985 43.3847 32.9951 42.6405 32.9951H23.1294C22.3852 32.9951 21.7817 33.5985 21.7817 34.3428C21.7817 35.0871 22.3852 35.6904 23.1294 35.6904H42.6405C43.3848 35.6904 43.9881 35.0871 43.9881 34.3428Z" fill="black"/>
<path d="M15.0195 41.9465H17.7446C18.4888 41.9465 19.0923 41.3432 19.0923 40.5989C19.0923 39.8546 18.4888 39.2512 17.7446 39.2512H15.0195C14.2754 39.2512 13.6719 39.8546 13.6719 40.5989C13.6719 41.3432 14.2754 41.9465 15.0195 41.9465Z" fill="black"/>
<path d="M37.5954 40.5989C37.5954 39.8546 36.9919 39.2512 36.2478 39.2512H23.1294C22.3852 39.2512 21.7817 39.8546 21.7817 40.5989C21.7817 41.3432 22.3852 41.9465 23.1294 41.9465H36.2478C36.9919 41.9465 37.5954 41.3432 37.5954 40.5989Z" fill="black"/>
<path d="M15.0195 48.2024H17.7446C18.4888 48.2026  19.0923 47.599 19.0923 46.8547C19.0923 46.1104 18.4888 45.5071 17.7446 45.5071H15.0195C14.2754 45.5071 13.6719 46.1104 13.6719 46.8547C13.6719 47.599 14.2754 48.2026  15.0195 48.2024Z" fill="black"/>
<path d="M31.7774 46.8547C31.7774 46.1104 31.174 45.5071 30.4298 45.5071H23.1294C22.3852 45.5071 21.7817 46.1104 21.7817 46.8547C21.7817 47.599 22.3852 48.2026  23.1294 48.2024H30.4298C31.174 48.2026  31.7774 47.599 31.7774 46.8547Z" fill="black"/>
<path d="M15.0195 54.4585H17.7446C18.4888 54.4585 19.0923 53.8552 19.0923 53.1108C19.0923 52.3665 18.4888 51.7632 17.7446 51.7632H15.0195C14.2754 51.7632 13.6719 52.3665 13.6719 53.1108C13.6719 53.8552 14.2754 54.4585 15.0195 54.4585Z" fill="black"/>
<path d="M23.1294 51.7632C22.3852 51.7632 21.7817 52.3665 21.7817 53.1108C21.7817 53.8552 22.3852 54.4585 23.1294 54.4585H26.2349C26.9791 54.4585 27.5826 53.8552 27.5826 53.1108C27.5826 52.3665 26.9791 51.7632 26.2349 51.7632H23.1294Z" fill="black"/>
</svg>
